PathFileType	4	(X/Y/Z)	25_coords_data.trc
DataRate	CameraRate	NumFrames	NumMarkers	Units	OrigDataRate	OrigDataStartFrame	OrigNumFrames
30.0	30.0	6	21	m	30.0	51	80
Frame#	Time	THUMB_TIP	THUMB_IP	THUMB_MCP	THUMB_CMC	INDEX_TIP	INDEX_DIP	INDEX_PIP	INDEX_MCP	MIDDLE_TIP	MIDDLE_DIP	MIDDLE_PIP	MIDDLE_MCP	RING_TIP	RING_DIP	RING_PIP	RING_MCP	PINKY_TIP	PINKY_DIP	PINKY_PIP	PINKY_MCP	WRIST
X1	Y1	Z1	X2	Y2	Z2	X3	Y3	Z3	X4	Y4	Z4	X5	Y5	Z5	X6	Y6	Z6	X7	Y7	Z7	X8	Y8	Z8	X9	Y9	Z9	X10	Y10	Z10	X11	Y11	Z11	X12	Y12	Z12	X13	Y13	Z13	X14	Y14	Z14	X15	Y15	Z15	X16	Y16	Z16	X17	Y17	Z17	X18	Y18	Z18	X19	Y19	Z19	X20	Y20	Z20	X21	Y21	Z21
49	1.6666666666666594	0.4846092245056217	0.010004002889180574	-0.16956943594522372	0.480579268476803	0.0005150924099158738	-0.1490336127982863	0.471026700136286	-0.011824352688718176	-0.12210209719374687	0.4704344520112296	-0.024712117579540505	-0.07940028507438529	0.565038950943282	0.035420290558312084	-0.17147251193475516	0.5515687564439626	0.030259316867413566	-0.16052179457412702	0.5330285770621539	0.02549870783275887	-0.14422430448793527	0.5032200446978278	0.0143660870702349	-0.11591967152365285	0.5884032312815473	0.03996034814600358	-0.14989650915103542	0.5733150720032154	0.035932219210656036	-0.14072472487141413	0.5497475183109916	0.03111856453357642	-0.12426845884251275	0.5159721214303896	0.016494964492850372	-0.09894019778087032	0.5938013143679214	0.0358036647687866	-0.12815328977130785	0.5791431686255022	0.03060648667338961	-0.11903582832424231	0.5588377923284105	0.02453513631118842	-0.10595873471698752	0.5270133769420241	0.00979272177674162	-0.08584434601115604	0.593220336239492	0.022957819371843824	-0.10166025247605937	0.5792706881714231	0.016164108337369476	-0.09443164201781196	0.5613831322820354	0.009324144858161576	-0.08582569855372113	0.5306469069992967	-0.002906131156310887	-0.07145252023511106	0.4622830810018609	-0.023011742144276925	-0.05198982011943104
50	1.6999999999999926	0.48111615869564983	0.011286146064696245	-0.16973352786457618	0.4779901195333871	0.0013710622675120465	-0.14924160280979382	0.4695692099372726	-0.011393978475170652	-0.12213141991827281	0.47000760937478514	-0.02461417618649231	-0.07952949298524836	0.5643352744243854	0.03800793824093207	-0.17169520770408625	0.5512160953864957	0.03182076478733298	-0.1608505764965774	0.5330991142740061	0.02563558617332551	-0.14455553449348568	0.5038798478230141	0.013080807448757503	-0.11623155007668673	0.5882058210886202	0.04305626651998684	-0.14940220053355363	0.5733328961625022	0.03774619772801824	-0.14053657739884867	0.5499761818398474	0.03108902477424702	-0.12442585133471734	0.516634371892196	0.014977535245377593	-0.09942802071732532	0.5936682512843471	0.03812726604522454	-0.12720297375275658	0.579218716796686	0.03175301657538454	-0.11850930382653191	0.5591061644452456	0.02414947605444928	-0.10594541157703119	0.5275020829575156	0.008137492086267017	-0.08646415810812952	0.5932084219687922	0.024279597551357	-0.10016187406385862	0.5793885726127997	0.016725203488928253	-0.09345792790303542	0.5615775358079255	0.009008939719978959	-0.08545553698635228	0.5309032141431849	-0.004319116012964752	-0.07195248652404646	0.4622830810018609	-0.023011742144276925	-0.051989820119430985
51	1.7333333333333258	0.4782236938920055	0.01233015051571651	-0.1697719387632135	0.47581785473650506	0.002063043434113787	-0.14935629647273524	0.4683658503882129	-0.01104970849395659	-0.12212867505502928	0.4696706375135705	-0.024531210630267752	-0.07962647945637658	0.5637678809509051	0.040097499961749716	-0.17168397399899876	0.5509822155439341	0.033015919077389766	-0.16098921022043627	0.5332687371331672	0.025582661398200757	-0.1447722685893496	0.5045650336855105	0.011770857574229576	-0.11650625405745779	0.5880309540547579	0.045507893397690014	-0.14872203276846252	0.5733876468156475	0.03910414493362768	-0.14020349071538613	0.5502819767417653	0.03083092127172027	-0.12448435172252248	0.5173136772700778	0.013406917252037576	-0.09987453183559108	0.5935850182046454	0.03976389397623081	-0.1261271678494133	0.5793484809670975	0.03240569469368493	-0.117870176217938	0.5594369077847046	0.023530231058634832	-0.10583126523458414	0.5280001651989115	0.006445858341765032	-0.08700106984351985	0.5931921602084449	0.025031732390534467	-0.09878620706769203	0.5795035978519232	0.01684978386847913	-0.09256696442939155	0.5617803828422454	0.008404498521684456	-0.0851254038315099	0.5311500845422925	-0.0057546766497843516	-0.07239017570165018	0.462283081001861	-0.023011742144276925	-0.05198982011943104
52	1.7666666666666588	0.4756230687697195	0.013460442650819693	-0.1696593286205781	0.4738547327715089	0.002841175489285974	-0.1493589800336842	0.46726261010829007	-0.010626064506034871	-0.12208266492878944	0.46937092634843425	-0.024413464541213292	-0.07971106355591812	0.5632820602187897	0.04195734695187392	-0.17142051320781287	0.5508036126745642	0.03407107812067711	-0.160927891475943	0.5334726918084213	0.025503545336127198	-0.14485784490111459	0.5052176593981899	0.010514108872882177	-0.11674012749711637	0.5878658703656128	0.047490283400070776	-0.14788323890162786	0.5734498460489494	0.040151711907876586	-0.13973930794935885	0.5506090974150974	0.030457596258343766	-0.12445095049609789	0.5179663156270506	0.01185787903416835	-0.10027147082182292	0.5934835682825772	0.040989961418198106	-0.12498373383141176	0.5794671879475237	0.03278698214249043	-0.11715735450854237	0.5597632623058942	0.02280286848651214	-0.10565723416944822	0.5284688579981835	0.004775534557432515	-0.08748042684706642	0.5931661227547397	0.025438870852590667	-0.09749041511069023	0.5796055354980119	0.01672836959722468	-0.09172520556263919	0.5619697523635013	0.007666293655758771	-0.08482086259146399	0.5313686917288108	-0.007145718424859782	-0.07277665912441744	0.4622830810018609	-0.023011742144276925	-0.051989820119430985
53	1.7999999999999918	0.47348645004829715	0.014484254302648325	-0.16948036521954774	0.47223219030134456	0.0035630578194011386	-0.14930230040000958	0.46638172803049316	-0.010212993389347447	-0.12201104714349387	0.4691554332837955	-0.024284754691078603	-0.07977146744583463	0.5629152821667263	0.043644366019782055	-0.17089960524706005	0.5507062704559379	0.03505629793193121	-0.16064362554913397	0.5336970731457148	0.025513149859367146	-0.14478092197354442	0.5058224375432571	0.009435102975117626	-0.11688581142674664	0.5877300503295614	0.04903816924289883	-0.14695937470904263	0.5735237039846944	0.040933100770766506	-0.13918199799245418	0.5509297813898665	0.030085044435824937	-0.12430772874879509	0.5185723487603718	0.010473087410340809	-0.10054819137412652	0.5934199518609874	0.04181521077803019	-0.12384979800990509	0.5796054067499217	0.03294029579275648	-0.11640706817613461	0.5600811227097076	0.02208859853697409	-0.1053969374600221	0.5288787936601962	0.0033211853476879938	-0.08782082588582468	0.5931469818204265	0.025635914716050423	-0.09629253971176571	0.5796980779087415	0.01650904572850065	-0.09092343866425617	0.5621421672541288	0.00695793974146286	-0.08449083464165208	0.5315509180223941	-0.00834284952848141	-0.07304772452426445	0.4622830810018608	-0.023011742144276925	-0.05198982011943104
54	1.8333333333333253	0.47151653589561016	0.015496539136071852	-0.16926050366529966	0.47075674827902736	0.004306199768003727	-0.14920560332635124	0.4656141838351535	-0.009759937681851238	-0.12191974969883235	0.46895900902952237	-0.024139864133342348	-0.0798255712454069	0.5626271524045612	0.04510740248223177	-0.17025603057885852	0.550637567868755	0.035944361410206516	-0.16024161392230118	0.5338945274585682	0.02558031255610571	-0.14461257293532231	0.5063359012904992	0.008504552305217516	-0.11699778288392398	0.5876178936771683	0.05019013536614281	-0.14606881234573532	0.5735871803098065	0.04148583691359364	-0.13862742330524802	0.5512155238594341	0.029706072720554477	-0.1241306756278241	0.5190841231891266	0.009249791324534407	-0.1007798391671958	0.5933620440060661	0.04230555336399244	-0.12287031125146519	0.5797176169727374	0.032906576083701955	-0.1157647615178587	0.560351181620458	0.021388342406230443	-0.10516044854166123	0.5292272715340792	0.002024436733461865	-0.0880999030629514	0.593132880221419	0.02553073822712404	-0.09542808156734828	0.5797745611039111	0.01609152305189332	-0.09038263537989194	0.5623004611801352	0.006171500290087617	-0.08429486080627724	0.531699801733253	-0.009422256152941455	-0.07328042244513339	0.4622830810018609	-0.023011742144276925	-0.051989820119430985
